<svg xmlns="http://www.w3.org/2000/svg" width="193" height="37" viewBox="0 0 193 37">
  <g fill="none" fill-rule="evenodd" transform="translate(1)">
    <path stroke="#FFF" stroke-linejoin="round" d="M29.779204,21.8069671 L18.0019363,28.9221735 C16.8607643,29.6112662 14.9941922,29.6112662 13.8530202,28.9221735 L2.07523472,21.8069671 C0.934580507,21.1178744 0,19.4254803 0,18.0467532 L0,24.6077602 C0,25.9864872 0.934580507,27.6788814 2.07523472,28.367974 L13.8530202,35.4831805 C14.9941922,36.1722732 16.8607643,36.1722732 18.0019363,35.4831805 L29.779204,28.367974 C30.920376,27.6788814 31.8544387,25.9864872 31.8544387,24.6077602 L31.8544387,18.0467532 C31.8544387,19.4254803 30.920376,21.1178744 29.779204,21.8069671"/>
    <path stroke="#FFF" stroke-linejoin="round" d="M29.779204,15.3737894 L23.3261975,19.2584763 L18.0019363,22.4650303 C16.8607643,23.1518019 14.9941922,23.1518019 13.8530202,22.4650303 L8.56137877,19.2784532 L2.07523472,15.3737894 C0.936651599,14.6875577 0.00414218507,13.0068029 0,11.6348794 L0,18.2347979 C0,19.608881 0.934580507,21.2950349 2.07523472,21.9818065 L13.8530202,29.0730474 C14.9941922,29.7598191 16.8607643,29.7598191 18.0019363,29.0730474 L29.779204,21.9818065 C30.920376,21.2950349 31.8544387,19.608881 31.8544387,18.2347979 L31.8544387,11.6348794 C31.8508143,13.0068029 30.9183049,14.6875577 29.779204,15.3737894"/>
    <path fill="#001D64" d="M31.8544387,11.4874699 L31.8544387,11.4956701 C31.8502966,12.8853407 30.9183049,14.5871679 29.779204,15.2820032 L23.3261975,19.2153942 L18.0014185,15.9702783 C16.8607643,15.2743496 14.9936744,15.2743496 13.8530202,15.9702783 L8.59399847,19.1754863 L8.56086099,19.2356215 L2.07523472,15.2820032 C0.936133826,14.5871679 0.00362441194,12.8853407 0,11.4956701 L0,11.4874699 C0.00362441194,10.098346 0.936133826,8.39597213 2.07523472,7.70168351 L13.8530202,0.52153649 C14.9936744,-0.173845497 16.8607643,-0.173845497 18.0014185,0.52153649 L29.779204,7.70168351 C30.9183049,8.39597213 31.8502966,10.098346 31.8544387,11.4874699"/>
    <path fill="#FFF" d="M31.8544387,11.4956701 C31.8502966,12.8853407 30.9183049,14.5871679 29.779204,15.2820032 L23.3261975,19.2153942 L18.0014185,15.9702783 C16.8607643,15.2743496 14.9936744,15.2743496 13.8530202,15.9702783 L8.59399847,19.1754863 L8.56086099,19.2356215 L2.07523472,15.2820032 C0.936133826,14.5871679 0.00362441194,12.8853407 0,11.4956701 L0,11.4874699 C0.00362441194,10.098346 0.936133826,8.39597213 2.07523472,7.70168351 L13.8530202,0.52153649 C14.9936744,-0.173845497 16.8607643,-0.173845497 18.0014185,0.52153649 L29.779204,7.70168351 C30.9183049,8.39597213 31.8502966,10.098346 31.8544387,11.4874699 L31.8544387,11.4956701 Z"/>
    <g fill="#FFF" transform="translate(47.816 8.816)">
      <path d="M7.43257537 19.9515988C4.13585025 19.9515988 1.37861675 18.3843079 2.84217094e-14 16.684772L1.91886502 14.5250239C3.40568276 16.1988665 5.5417064 17.1706776 7.43257537 17.1706776 9.48688079 17.1706776 10.8662542 16.1444571 10.8662542 14.5522286 10.8662542 13.012898 9.3786798 12.1763545 6.97328867 11.3934647L5.45998818 10.9075592C2.24346798 9.88058309.67568867 8.36921283.67568867 5.58904723.67568867 2.45748805 3.40568276 2.84217094e-14 7.27140887 2.84217094e-14 10.568134 2.84217094e-14 12.9205596 1.56577959 13.839133 2.86177959L11.9210246 5.07518134C10.7035744 3.69832303 9.11006897 2.80737026 7.27140887 2.80737026 5.10890246 2.80737026 4.02764926 4.10337026 4.02764926 5.31775627 4.02764926 6.53289796 4.7570601 7.28933878 6.62295961 7.90975627L8.86567094 8.6654414C11.8128236 9.66445714 14.2446975 10.7722915 14.2446975 14.1728746 14.2446975 17.8182997 11.1643744 19.9515988 7.43257537 19.9515988M16.9144623 19.6536322L20.0500209 19.6536322 20.0500209 7.36921469 16.9144623 7.36921469 16.9144623 19.6536322zM16.8879795 3.67164735L20.0772603 3.67164735 20.0772603.297513236 16.8879795.297513236 16.8879795 3.67164735zM26.0095496 7.3694414L26.1177505 8.88156735C26.9023968 7.77524431 28.3354924 7.10041749 29.9017584 7.10041749 31.4158156 7.10041749 32.7407101 7.74879534 33.4436382 8.88156735 34.3349722 7.74879534 35.7408284 7.10041749 37.4175653 7.10041749 40.1475594 7.10041749 41.9589801 8.55737843 41.9589801 12.3924805L41.9589801 19.6538589 38.8234215 19.6538589 38.8234215 12.3652758C38.8234215 10.4745516 38.2551771 9.50274052 36.6056796 9.50274052 35.1733407 9.50274052 34.0920875 10.420898 34.0920875 12.1763545L34.0920875 19.6538589 30.9565289 19.6538589 30.9565289 12.3652758C30.9565289 10.3664886 30.2263614 9.50274052 28.7940225 9.50274052 27.1460382 9.50274052 26.2259515 10.6906776 26.2259515 12.4733388L26.2259515 19.6538589 23.0903929 19.6538589 23.0903929 7.3694414 26.0095496 7.3694414zM51.5315894 17.5482934C53.3959756 17.5482934 54.8283145 15.9560648 54.8283145 13.4985768 54.8283145 11.0690491 53.4776938 9.50251382 51.5035933 9.50251382 49.5302495 9.50251382 48.1523894 10.9889465 48.1523894 13.4985768 48.1523894 15.7663879 49.3138475 17.5482934 51.5315894 17.5482934M52.1800386 19.9513721C50.4768189 19.9513721 49.0709628 19.1677266 48.2061115 18.1422619L48.1523894 18.1687109 48.1523894 25.3235377 45.0168307 25.3235377 45.0168307 7.36921469 47.9359874 7.36921469 48.0441884 8.85489166 48.0979105 8.90854531C48.8008386 8.07275755 50.2868997 7.10094647 52.1800386 7.10094647 55.34208 7.10094647 57.9911125 9.39445085 57.9911125 13.5250258 57.9911125 17.3865768 55.4767637 19.9513721 52.1800386 19.9513721"/>
      <polygon points="60.508 19.654 63.644 19.654 63.644 .298 60.508 .298"/>
      <path d="M78.0996225 7.3694414L73.1533998 19.6538589C71.9639456 22.6237015 70.8009742 25.7008513 67.6654156 25.7008513 66.9632441 25.7008513 66.3949998 25.6192373 66.0703968 25.5391347L66.0703968 22.91993C66.3420343 22.9478904 66.6106451 22.975095 66.8550432 22.975095 68.1799377 22.975095 68.828387 22.4876781 69.3958747 21.1924338L70.1790077 19.3840793 65.2607811 7.3694414 68.6127417 7.3694414 71.8005092 15.6321026 74.9360678 7.3694414 78.0996225 7.3694414zM86.246627 19.9515988C82.9499019 19.9515988 80.1919117 18.3843079 78.8140516 16.684772L80.73216 14.5250239C82.2197344 16.1988665 84.355758 17.1706776 86.246627 17.1706776 88.3009324 17.1706776 89.6803058 16.1444571 89.6803058 14.5522286 89.6803058 13.012898 88.1927314 12.1763545 85.7880969 11.3934647L84.2740398 10.9075592C81.056763 9.88058309 79.4904969 8.36921283 79.4904969 5.58904723 79.4904969 2.45748805 82.2197344 2.84217094e-14 86.0854605 2.84217094e-14 89.3821856 2.84217094e-14 91.7346112 1.56577959 92.6531846 2.86177959L90.7350763 5.07518134C89.517626 3.69832303 87.9241206 2.80737026 86.0854605 2.80737026 83.9229541 2.80737026 82.8417009 4.10337026 82.8417009 5.31775627 82.8417009 6.53289796 83.5711117 7.28933878 85.4370112 7.90975627L87.6797226 8.6654414C90.6268753 9.66445714 93.0587492 10.7722915 93.0587492 14.1728746 93.0587492 17.8182997 89.978426 19.9515988 86.246627 19.9515988M96.3673537 9.82670274L94.3130483 9.82670274 94.3130483 7.36921469 96.3673537 7.36921469 96.3673537 3.4555214 99.5309084 3.4555214 99.5309084 7.36921469 102.017261 7.36921469 102.017261 9.82670274 99.5309084 9.82670274 99.5309084 15.7399389C99.5309084 16.9278759 99.7465537 17.1704508 101.124414 17.1704508L102.017261 17.1704508 102.017261 19.6536322C100.746089 19.7080415 100.340524 19.7080415 100.097639 19.7080415 97.1784828 19.7080415 96.3673537 18.6553721 96.3673537 15.9825138L96.3673537 9.82670274zM108.975038 13.8491391C107.569182 13.8491391 106.59613 14.6327846 106.59613 15.8207216 106.59613 16.9806983 107.541943 17.7915485 108.947042 17.7915485 110.380895 17.7915485 111.624071 17.0887613 111.624071 15.8479263 111.624071 14.5783753 110.191732 13.8491391 108.975038 13.8491391M111.624071 12.9324931L111.624071 12.3113199C111.624071 11.2049969 111.381186 10.6087613 110.949139 10.1772651 110.489096 9.7185642 109.81265 9.50243825 109.028761 9.50243825 108.082191 9.50243825 106.892737 9.82662717 105.595838 10.6367216L104.488102 8.5850365C106.083121 7.55881609 107.921781 7.1008709 109.543283 7.1008709 111.191267 7.1008709 112.623606 7.66687907 113.570175 8.66513913 113.976497 9.09739102 114.326826 9.6369502 114.489505 10.3125327 114.651429 10.7719893 114.677911 11.3652021 114.677911 12.2569106L114.677911 19.6543123 111.758755 19.6543123 111.677793 18.5744383C110.785702 19.5462493 109.299641 19.9512966 108.082191 19.9512966 105.406676 19.9512966 103.596768 18.2502493 103.596768 15.8743753 103.596768 13.7690365 105.244753 11.879068 108.27211 11.879068 109.435082 11.879068 110.732737 12.2848709 111.624071 12.9324931M123.419492 19.9515988C119.527283 19.9515988 117.066656 17.1706776 117.066656 13.5252525 117.066656 9.98864606 119.472804 7.10041749 123.419492 7.10041749 127.069572 7.10041749 129.284288 9.04479534 129.555925 11.5551813L126.393127 11.5551813C126.09652 10.3664886 125.175677 9.50274052 123.473214 9.50274052 121.689789 9.50274052 120.25745 11.0692758 120.25745 13.5252525 120.25745 16.2804805 121.771507 17.5485201 123.473214 17.5485201 125.230912 17.5485201 126.176725 16.4958507 126.420367 15.2527487L129.528686 15.2527487C129.366006 17.8719534 127.041576 19.9515988 123.419492 19.9515988"/>
      <polygon points="131.964 19.654 131.964 .298 135.099 .298 135.099 12.581 139.856 7.37 143.451 7.37 137.829 13.256 143.587 19.654 139.911 19.654 135.099 14.173 135.099 19.654"/>
    </g>
  </g>
</svg>
